<svg height="558" width="720" xmlns="http://www.w3.org/2000/svg">
<rect height="558" fill="#555" width="720"></rect>
<text fill="#7f7" font-family="Courier New" font-size="12" xml:space="preserve">
<tspan x="10" y="26">19 megabytes installed</tspan>
<tspan x="10" y="42"></tspan>
<tspan x="10" y="58">node_modules</tspan>
<tspan x="10" y="74">└─┬ sequelize@3.30.4 </tspan>
<tspan x="10" y="90">  ├── bluebird@3.5.0 </tspan>
<tspan x="10" y="106">  ├── depd@1.1.0 </tspan>
<tspan x="10" y="122">  ├── dottie@1.1.1 </tspan>
<tspan x="10" y="138">  ├── generic-pool@2.4.2 </tspan>
<tspan x="10" y="154">  ├── inflection@1.12.0 </tspan>
<tspan x="10" y="170">  ├── lodash@4.12.0 </tspan>
<tspan x="10" y="186">  ├── moment@2.18.1 </tspan>
<tspan x="10" y="202">  ├── moment-timezone@0.5.13 </tspan>
<tspan x="10" y="218">  ├─┬ retry-as-promised@2.2.0 </tspan>
<tspan x="10" y="234">  │ ├─┬ cross-env@3.2.4 </tspan>
<tspan x="10" y="250">  │ │ ├─┬ cross-spawn@5.1.0 </tspan>
<tspan x="10" y="266">  │ │ │ ├─┬ lru-cache@4.0.2 </tspan>
<tspan x="10" y="282">  │ │ │ │ ├── pseudomap@1.0.2 </tspan>
<tspan x="10" y="298">  │ │ │ │ └── yallist@2.1.2 </tspan>
<tspan x="10" y="314">  │ │ │ ├─┬ shebang-command@1.2.0 </tspan>
<tspan x="10" y="330">  │ │ │ │ └── shebang-regex@1.0.0 </tspan>
<tspan x="10" y="346">  │ │ │ └─┬ which@1.2.14 </tspan>
<tspan x="10" y="362">  │ │ │   └── isexe@2.0.0 </tspan>
<tspan x="10" y="378">  │ │ └── is-windows@1.0.0 </tspan>
<tspan x="10" y="394">  │ └─┬ debug@2.6.3 </tspan>
<tspan x="10" y="410">  │   └── ms@0.7.2 </tspan>
<tspan x="10" y="426">  ├── semver@5.3.0 </tspan>
<tspan x="10" y="442">  ├── shimmer@1.1.0 </tspan>
<tspan x="10" y="458">  ├─┬ terraformer-wkt-parser@1.1.2 </tspan>
<tspan x="10" y="474">  │ └── terraformer@1.0.7 </tspan>
<tspan x="10" y="490">  ├── toposort-class@1.0.1 </tspan>
<tspan x="10" y="506">  ├── uuid@3.0.1 </tspan>
<tspan x="10" y="522">  ├── validator@5.7.0 </tspan>
<tspan x="10" y="538">  └── wkx@0.2.0</tspan>
</text>
</svg>
